<svg width="51" height="52" viewBox="0 0 51 52" fill="none" xmlns="http://www.w3.org/2000/svg">
<g id="Icon">
<path id="Vector" d="M25.5 50.6791C39.1299 50.6791 50.1791 39.6299 50.1791 26C50.1791 12.3701 39.1299 1.32092 25.5 1.32092C11.8701 1.32092 0.820938 12.3701 0.820938 26C0.820938 39.6299 11.8701 50.6791 25.5 50.6791Z" fill="white"/>
<path id="Vector_2" d="M27.9817 11.9906C27.7654 11.952 26.7224 11.7767 25.5 11.7767C24.2777 11.7767 23.2346 11.9511 23.0183 11.9906C22.8941 12.0128 22.8464 11.8911 22.941 11.8203C23.0265 11.757 25.4992 9.87494 25.4992 9.87494L28.0566 11.8203C28.1528 11.8911 28.1059 12.0128 27.9817 11.9906ZM23.7092 24.2109C23.7092 24.2109 23.5785 24.2578 23.5439 24.3729C24.0621 24.7711 24.4191 25.6767 25.5 25.6767C26.5809 25.6767 26.9379 24.7711 27.4553 24.3729C27.4216 24.2569 27.2908 24.2109 27.2908 24.2109C27.2908 24.2109 26.6138 24.3705 25.5 24.3705C24.3862 24.3705 23.7092 24.2109 23.7092 24.2109ZM25.5 22.6866C25.1998 22.6866 25.134 22.5731 24.9291 22.5739C24.7342 22.5748 24.3558 22.7302 24.2735 22.8725C24.2793 22.9449 24.3056 23.0099 24.3583 23.0675C24.7959 23.1333 24.9933 23.3768 25.5008 23.3768C26.0084 23.3768 26.205 23.1333 26.6434 23.0675C26.6944 23.0099 26.7224 22.9457 26.7281 22.8725C26.6467 22.7302 26.2675 22.5756 26.0717 22.5739C25.8661 22.5723 25.7994 22.6866 25.5 22.6866ZM50.1412 27.3531C50.11 27.9429 50.0573 28.5278 49.9849 29.1061C47.1915 29.5683 46.1928 27.0792 43.3311 27.2042C43.5022 27.8113 43.6412 28.4299 43.7481 29.0616C46.1081 29.06 47.059 31.2661 49.6847 30.9412C49.5465 31.6157 49.3803 32.2812 49.1887 32.9368C47.1125 33.1408 46.3812 31.0778 43.9785 31.1345C43.9982 31.4767 44.0089 31.8222 44.0089 32.171L43.999 32.7476L48.6647 34.5277C48.4204 35.1915 48.1473 35.8405 47.8495 36.4764C46.447 36.3991 45.9633 34.6001 43.8296 34.7432C43.7654 35.2047 43.684 35.6604 43.5869 36.1103C45.4402 35.9804 45.8391 37.6864 47.1668 37.8246C46.8287 38.4415 46.4643 39.042 46.0769 39.6269C45.2905 39.2057 44.6086 37.9348 43.1172 37.8567C43.2702 37.3845 43.4043 36.9058 43.5178 36.4188C42.1951 36.4188 40.6824 35.903 39.414 34.7481C39.8252 32.4071 36.1919 30.0232 36.1919 28.309C36.1919 26.4466 37.1338 25.416 37.1338 22.9054C37.1338 21.0423 36.2289 19.0212 34.8643 17.6401C34.6002 17.3719 34.3296 17.1548 34.0186 16.9598C35.2723 18.5112 36.2347 20.3505 36.2347 22.481C36.2347 24.8451 35.1349 26.0929 35.1349 28.2752C35.1349 30.4567 38.3265 32.3446 38.3265 34.5943C38.3265 35.4794 38.0435 36.3439 37.1107 38.0417C38.5437 39.473 40.4101 40.2537 41.6144 40.2537C42.0051 40.2537 42.2148 40.1344 42.3547 39.8276C42.4748 39.5627 42.5891 39.2945 42.6969 39.0239C43.9941 39.0741 44.588 40.2528 45.3061 40.7234C44.9121 41.2523 44.4983 41.7631 44.0648 42.2575C43.5836 41.7244 42.9371 40.8278 41.9903 40.5786C41.8208 40.9076 41.6415 41.2325 41.4531 41.5509C42.2683 41.773 42.826 42.5956 43.2579 43.1368C42.7923 43.6188 42.3078 44.0811 41.8036 44.5253C41.4885 44.0351 40.9982 43.4132 40.4488 43.0776C40.2456 43.3523 40.0342 43.6205 39.8162 43.8812C40.2834 44.1979 40.6955 44.768 40.9645 45.2327C40.3821 45.7 39.78 46.1433 39.1565 46.5579C38.8488 44.0515 35.4277 42.334 36.3498 39.4261C36.0471 39.9386 35.686 40.5794 35.686 41.351C35.686 43.456 37.9284 45.1266 38.1069 47.2185C37.6421 47.4965 37.1667 47.7581 36.6822 48.0057C36.6016 45.7066 34.2276 43.1903 34.2276 41.3033C34.2276 39.1966 36.9865 37.081 36.9865 34.5943C36.9865 32.106 33.8031 30.3835 33.8031 28.1987C33.8031 26.0156 35.1571 24.7595 35.1571 21.9611C35.1571 19.9112 34.1832 17.8367 32.6787 16.5115C32.4121 16.2763 32.1497 16.0895 31.8347 15.9258C33.2537 17.6278 34.0762 19.1717 34.0762 21.5145C34.0762 24.1459 32.5248 25.6068 32.5248 28.1831C32.5248 30.7603 35.649 32.1932 35.649 34.5951C35.649 36.9971 32.7412 39.0214 32.7412 41.4892C32.7412 43.734 35.3043 45.9747 35.3422 48.6382C34.782 48.8825 34.2111 49.1055 33.6304 49.3078C33.9561 46.6171 31.0713 43.8418 31.0713 41.6463C31.0713 39.246 34.0877 37.183 34.0877 34.5951C34.0877 32.0056 31.0212 30.8022 31.0212 28.1445C31.0212 25.4883 32.9024 24.0176 32.9024 21.0826C32.9024 18.795 31.773 16.7377 30.1229 15.4627L30.0184 15.3838C29.863 15.2686 29.7346 15.4076 29.8449 15.5442C31.0129 17.0026 31.6373 18.4775 31.6373 20.6614C31.6373 23.3463 29.4764 25.5278 29.4764 28.1288C29.4764 31.1987 32.3784 32.0764 32.3784 34.5951C32.3784 37.1131 29.2666 39.1276 29.2666 41.8009C29.2666 44.2802 32.2114 47.0317 31.7064 49.8935C31.1158 50.0465 30.5169 50.1797 29.909 50.2883C30.4618 46.7249 27.5729 44.1659 27.5729 41.8347C27.5729 39.311 30.7958 37.0612 30.7958 34.5951C30.7958 32.2689 28.4827 31.5088 28.1783 29.1291C28.1364 28.8042 27.8756 28.5631 27.5161 28.6232C27.0465 28.7087 26.4443 29.018 25.4984 29.018C24.5524 29.018 23.9503 28.7079 23.4797 28.6232C23.1211 28.564 22.8603 28.805 22.8184 29.1291C22.5149 31.5088 20.2001 32.2681 20.2001 34.5951C20.2001 37.0612 23.4238 39.3102 23.4238 41.8347C23.4238 44.1659 20.5349 46.7249 21.0869 50.2883C20.4798 50.1789 19.8801 50.0457 19.2895 49.8935C18.7845 47.0317 21.7301 44.2802 21.7301 41.8009C21.7301 39.1276 18.6175 37.1131 18.6175 34.5951C18.6175 32.0764 21.5204 31.1987 21.5204 28.1288C21.5204 25.5278 19.3586 23.3472 19.3586 20.6614C19.3586 18.4783 19.983 17.0034 21.1518 15.5442C21.2612 15.4076 21.1337 15.2686 20.9775 15.3838L20.8738 15.4627C19.2254 16.7344 18.0968 18.7917 18.0968 21.0793C18.0968 24.0143 19.978 25.4851 19.978 28.1412C19.978 30.7981 16.9114 32.0015 16.9114 34.5918C16.9114 37.1797 19.9278 39.2427 19.9278 41.643C19.9278 43.8393 17.0431 46.6139 17.3696 49.3045C16.7881 49.1022 16.2172 48.8784 15.657 48.6349C15.6957 45.9714 18.2572 43.7299 18.2572 41.4859C18.2572 39.0181 15.351 36.9938 15.351 34.5918C15.351 32.1899 18.4735 30.757 18.4735 28.1798C18.4735 25.6035 16.923 24.1426 16.923 21.5112C16.923 19.1685 17.7447 17.6245 19.1637 15.9226C18.8478 16.0862 18.5862 16.273 18.3205 16.5082C16.816 17.8334 15.8429 19.908 15.8429 21.9578C15.8429 24.7562 17.1969 26.0123 17.1969 28.1955C17.1969 30.3802 14.0135 32.1027 14.0135 34.591C14.0135 37.0777 16.7724 39.1942 16.7724 41.3C16.7724 43.1878 14.3968 45.7041 14.317 48.0024C13.8325 47.7548 13.3571 47.4932 12.8923 47.2152C13.0716 45.1233 15.3132 43.4527 15.3132 41.3477C15.3132 40.5761 14.9529 39.9353 14.6493 39.4229C15.5715 42.3307 12.1503 44.0482 11.8427 46.5546C11.2192 46.14 10.6162 45.6967 10.0347 45.2295C10.3028 44.7655 10.7149 44.1946 11.183 43.878C10.9642 43.618 10.7536 43.349 10.5504 43.0743C10.0001 43.4099 9.50904 44.0318 9.19481 44.522C8.69222 44.0787 8.20689 43.6156 7.74131 43.1335C8.17317 42.5923 8.73088 41.7697 9.54605 41.5476C9.35768 41.2292 9.17836 40.9051 9.00891 40.5753C8.06212 40.8245 7.41475 41.7211 6.93436 42.2542C6.50086 41.759 6.08628 41.2482 5.69309 40.7201C6.4112 40.2495 7.0051 39.07 8.30149 39.0206C8.41007 39.2904 8.52441 39.5586 8.64451 39.8243C8.78434 40.1311 8.99493 40.2504 9.38483 40.2504C10.5891 40.2504 12.4547 39.4697 13.8885 38.0385C12.9557 36.3406 12.6727 35.4761 12.6727 34.591C12.6727 32.3421 15.8643 30.4543 15.8643 28.272C15.8643 26.0896 14.7645 24.8418 14.7645 22.4777C14.7645 20.3472 15.7269 18.5079 16.9805 16.9565C16.6696 17.1515 16.399 17.3686 16.1349 17.6368C14.7703 19.0187 13.8654 21.039 13.8654 22.9021C13.8654 25.4127 14.8081 26.4434 14.8081 28.3057C14.8081 30.0199 11.1739 32.4038 11.5852 34.7448C10.3168 35.8997 8.80409 36.4155 7.48055 36.4155C7.59572 36.9025 7.7298 37.3812 7.88115 37.8534C6.39064 37.9323 5.70871 39.2032 4.9215 39.6236C4.53325 39.0387 4.16967 38.4382 3.83159 37.8213C5.15841 37.6831 5.55818 35.9771 7.41228 36.107C7.31521 35.6571 7.23296 35.2006 7.1688 34.7399C5.03502 34.5968 4.55134 36.3966 3.14884 36.4731C2.85107 35.8372 2.57797 35.1882 2.33367 34.5244L7.00017 32.7443L6.9903 32.1677C6.9903 31.8189 7.00099 31.4734 7.01991 31.1312C4.61715 31.0753 3.88588 33.1375 1.80968 32.9335C1.61884 32.2779 1.45186 31.6133 1.31449 30.9379C3.93852 31.2629 4.89025 29.0567 7.25105 29.0583C7.35799 28.4266 7.49701 27.808 7.66728 27.201C4.80552 27.0767 3.80691 29.5659 1.01425 29.1028C0.941038 28.5245 0.889215 27.9396 0.857957 27.3498C4.10468 27.7126 5.3221 25.0433 8.27846 25.3699C8.55731 24.6633 8.88141 23.9797 9.24663 23.3217C5.54009 22.6702 4.28154 25.7697 0.831635 25.2934C1.20426 11.9914 12.1059 1.32092 25.5 1.32092C38.8941 1.32092 49.7957 11.9914 50.1684 25.2967C46.7176 25.773 45.4591 22.6743 41.7534 23.325C42.1178 23.983 42.4419 24.6666 42.7216 25.3732C45.6763 25.0458 46.8937 27.7159 50.1412 27.3531ZM14.892 17.0026C13.0749 16.2598 10.8753 16.4309 8.99657 17.6376C8.70538 15.8896 7.75694 14.3366 6.40626 13.3997C6.21954 13.2706 6.02541 13.3931 6.04268 13.6095C6.32812 17.3028 4.16884 20.5101 1.51355 23.3291C4.25028 24.1516 6.57983 20.6277 10.1293 21.8575C11.4026 19.9614 13.0198 18.3138 14.892 17.0026ZM25.5 14.7685C23.2091 14.7685 21.29 16.064 20.7874 17.738C20.7488 17.8663 20.8014 17.9494 20.9495 17.8828C21.3616 17.6977 21.8305 17.6088 22.3397 17.6088C23.2741 17.6088 24.0975 17.9519 24.5845 18.5491C24.8 19.2598 24.8181 20.2888 24.5746 20.8761C24.1896 20.7898 24.0514 20.492 23.6755 20.492C23.2996 20.492 23.0084 20.756 22.3709 20.756C21.7342 20.756 21.6594 20.455 21.2407 20.455C20.748 20.455 20.6575 20.9625 20.6575 21.535C20.6575 24.0875 23.0035 27.5999 25.4992 27.5999C27.9941 27.5999 30.3401 24.0875 30.3401 21.535C30.3401 20.9625 30.2224 20.4722 29.7075 20.4056C29.4509 20.5907 29.2148 20.756 28.6275 20.756C27.99 20.756 27.8139 20.492 27.4388 20.492C26.9856 20.492 27.0308 21.4478 26.4929 21.5013C26.1342 20.6392 26.1169 19.5337 26.4147 18.5491C26.9025 17.9519 27.7251 17.6088 28.6595 17.6088C29.1687 17.6088 29.6409 17.6985 30.0489 17.8828C30.1978 17.9494 30.2496 17.8655 30.2109 17.738C29.7092 16.064 27.7909 14.7685 25.5 14.7685ZM29.1473 18.4306C28.5978 18.4306 27.9538 18.5992 27.5491 19.05C27.5071 19.1726 27.5071 19.3552 27.5663 19.4769C28.5625 19.1356 29.441 19.1224 29.8654 19.597C30.0916 19.3914 30.164 19.2063 30.164 18.9916C30.164 18.6601 29.8268 18.4306 29.1473 18.4306ZM21.1346 19.597C21.615 19.1158 22.6276 19.1364 23.6796 19.5246C23.7257 19.0015 22.7888 18.4298 21.8527 18.4298C21.1724 18.4298 20.836 18.6593 20.836 18.9916C20.836 19.2063 20.9084 19.3922 21.1346 19.597ZM36.9232 10.9566C35.1143 11.0858 33.5432 11.7068 32.2723 12.7416C32.8119 11.2116 33.4971 9.87329 34.3658 8.57608C32.0626 8.82039 30.1369 9.66271 28.7319 11.1022L27.6321 8.21908L30.0736 6.0631L26.8046 5.83195L25.5 2.7917L24.1946 5.83195L20.9256 6.0631L23.3671 8.21908L22.2681 11.1022C20.8623 9.66271 18.9366 8.82039 16.6351 8.57608C17.5021 9.87412 18.1873 11.2125 18.7269 12.7416C17.4568 11.706 15.8857 11.085 14.0768 10.9566C15.1618 12.3517 16.1234 13.839 16.8358 15.4381C16.9164 15.6182 17.0891 15.6774 17.2758 15.5845C19.7535 14.3531 22.5453 13.6605 25.4992 13.6605C28.4531 13.6605 31.2441 14.3539 33.7233 15.5845C33.9101 15.6774 34.0828 15.6182 34.1626 15.4381C34.8758 13.839 35.8374 12.3517 36.9232 10.9566ZM40.8724 21.8591C44.4202 20.6294 46.7506 24.1525 49.4873 23.3307C46.832 20.5117 44.6735 17.3045 44.959 13.6111C44.9762 13.3948 44.7813 13.2714 44.5954 13.4013C43.2439 14.3383 42.2955 15.8913 42.0051 17.6393C40.1255 16.4326 37.9267 16.2606 36.1096 17.0042C37.9794 18.3138 39.5974 19.9614 40.8724 21.8591Z" fill="#006241"/>
<g id="Group">
<path id="Vector_3" d="M44.0862 47.3953H42.8309V50.772H42.381V47.3953H41.129V46.9758H44.0862V47.3953ZM44.6135 46.9758H45.2806L46.572 49.9519H46.5811L47.8758 46.9758H48.5323V50.772H48.079V47.5894H48.0691L46.7094 50.772H46.4355L45.0708 47.5894H45.0618V50.772H44.6135V46.9758Z" fill="#006241"/>
</g>
</g>
</svg>
